<?xml version="1.0" encoding="UTF-8"?>
<svg xmlns="http://www.w3.org/2000/svg" xmlns:xlink="http://www.w3.org/1999/xlink" width="2002pt" height="1744pt" viewBox="0 0 2002 1744" version="1.1">
<g id="surface1">
<path style=" stroke:none;fill-rule:nonzero;fill:rgb(0%,0%,0%);fill-opacity:1;" d="M 964.316406 4.503906 C 936.648438 16.632812 921.105469 38.089844 924.835938 58.613281 C 927.324219 71.054688 949.394531 95 961.519531 97.800781 C 968.667969 99.664062 966.804688 103.707031 912.714844 203.535156 C 881.625 260.753906 855.203125 307.402344 853.957031 307.714844 C 852.714844 307.714844 832.199219 296.207031 808.882812 281.902344 C 785.566406 267.597656 751.683594 247.070312 733.652344 236.1875 C 715.621094 225.300781 700.390625 215.972656 699.765625 215.351562 C 699.144531 215.039062 700.699219 211.929688 703.1875 209.132812 C 718.417969 191.09375 717.488281 170.570312 700.390625 151.910156 C 669.300781 117.703125 601.84375 121.746094 578.527344 159.683594 C 558.011719 192.339844 591.894531 233.078125 639.148438 233.078125 C 648.472656 233.078125 655.933594 233.699219 655.933594 234.320312 C 655.933594 235.253906 663.085938 262 671.476562 294.339844 C 680.183594 326.371094 688.574219 358.09375 690.441406 364.3125 L 693.550781 376.128906 L 996.335938 376.128906 C 1162.964844 376.128906 1299.433594 375.507812 1299.433594 374.886719 C 1299.433594 373.953125 1304.410156 354.984375 1310.625 331.96875 C 1316.84375 309.269531 1324.304688 280.65625 1327.414062 268.839844 C 1336.429688 231.832031 1334.875 234.320312 1354.148438 233.386719 C 1363.472656 233.078125 1377.152344 230.277344 1384.300781 227.167969 C 1398.914062 220.949219 1416.320312 202.910156 1419.429688 191.09375 C 1427.203125 159.375 1393.007812 129.207031 1349.175781 129.207031 C 1295.703125 129.207031 1260.886719 172.746094 1287.3125 206.023438 L 1293.527344 214.105469 L 1276.742188 224.371094 C 1176.332031 286.566406 1138.09375 308.957031 1136.226562 307.089844 C 1135.917969 306.78125 1110.113281 260.132812 1079.339844 203.84375 L 1023.695312 101.21875 L 1035.507812 95.3125 C 1063.796875 81.316406 1074.988281 52.394531 1060.6875 31.25 C 1051.359375 17.875 1046.699219 13.523438 1030.53125 6.058594 C 1015.300781 -1.40625 979.550781 -2.027344 964.316406 4.503906 Z M 964.316406 4.503906 "/>
<path style=" stroke:none;fill-rule:nonzero;fill:rgb(0%,0%,0%);fill-opacity:1;" d="M 371.800781 381.105469 C 218.542969 411.269531 97.300781 545.304688 69.945312 713.546875 C 66.835938 732.519531 65.28125 765.480469 65.28125 816.792969 L 65.28125 892.363281 L 0 892.363281 L 0 942.121094 L 1995.78125 942.121094 L 1995.78125 892.363281 L 1930.5 892.363281 L 1930.5 816.792969 C 1930.5 708.261719 1921.796875 663.167969 1887.289062 592.265625 C 1832.265625 479.6875 1735.273438 402.253906 1621.804688 380.792969 C 1601.910156 377.0625 1568.335938 376.128906 1448.964844 376.128906 L 1300.367188 376.128906 L 1291.972656 407.851562 C 1287.3125 425.578125 1282.027344 445.167969 1280.472656 451.386719 L 1277.363281 463.207031 L 715.3125 463.207031 L 710.957031 448.277344 C 708.472656 440.191406 703.496094 420.601562 699.457031 404.742188 L 691.996094 376.128906 L 542.777344 376.441406 C 429.933594 376.75 387.964844 377.683594 371.800781 381.105469 Z M 638.835938 545.617188 C 662.773438 557.121094 686.398438 580.757812 698.214844 604.703125 C 706.605469 622.117188 707.226562 625.851562 707.226562 659.125 C 707.226562 692.402344 706.605469 696.132812 698.214844 713.546875 C 686.398438 737.492188 662.773438 761.128906 638.835938 772.945312 C 621.429688 781.34375 617.699219 781.964844 584.433594 781.964844 C 551.171875 781.964844 547.441406 781.34375 530.03125 772.945312 C 506.09375 761.128906 482.46875 737.492188 470.65625 713.546875 C 462.261719 696.132812 461.640625 692.402344 461.640625 659.125 C 461.640625 626.472656 462.261719 621.808594 470.035156 606.257812 C 481.226562 583.554688 496.769531 565.832031 516.042969 553.390625 C 539.667969 538.152344 553.96875 534.730469 589.097656 535.664062 C 616.453125 536.285156 622.671875 537.53125 638.835938 545.617188 Z M 1465.75 545.617188 C 1489.6875 557.121094 1513.3125 580.757812 1525.125 604.703125 C 1533.519531 622.117188 1534.140625 625.851562 1534.140625 659.125 C 1534.140625 692.402344 1533.519531 696.132812 1525.125 713.546875 C 1513.3125 737.492188 1489.6875 761.128906 1465.75 772.945312 C 1448.339844 781.34375 1444.609375 781.964844 1411.347656 781.964844 C 1378.085938 781.964844 1374.355469 781.34375 1356.945312 772.945312 C 1333.007812 761.128906 1309.382812 737.492188 1297.570312 713.546875 C 1289.175781 696.132812 1288.554688 692.402344 1288.554688 659.125 C 1288.554688 626.472656 1289.175781 621.808594 1296.949219 606.257812 C 1308.140625 583.554688 1323.683594 565.832031 1342.957031 553.390625 C 1366.582031 538.152344 1380.882812 534.730469 1416.011719 535.664062 C 1443.367188 536.285156 1449.585938 537.53125 1465.75 545.617188 Z M 1465.75 545.617188 "/>
<path style=" stroke:none;fill-rule:nonzero;fill:rgb(0%,0%,0%);fill-opacity:1;" d="M 387.34375 976.640625 C 320.507812 978.816406 309.316406 979.75 306.828125 984.105469 C 304.339844 988.769531 291.285156 989.078125 158.234375 986.902344 L 12.433594 984.726562 L 12.433594 1026.085938 L 46.320312 1026.085938 C 64.972656 1026.085938 84.246094 1027.019531 89.21875 1027.953125 L 98.546875 1029.820312 L 100.722656 1076.777344 C 101.65625 1102.898438 103.519531 1149.546875 104.453125 1180.644531 L 106.628906 1237.554688 L 40.414062 1237.554688 L 40.414062 1282.648438 L 151.394531 1281.714844 C 212.636719 1281.40625 264.550781 1280.160156 266.726562 1279.539062 C 269.523438 1278.605469 270.457031 1271.144531 269.835938 1252.484375 L 268.902344 1226.671875 L 232.53125 1227.914062 L 195.847656 1228.847656 L 195.847656 1209.257812 C 195.847656 1198.371094 196.78125 1181.890625 197.714844 1172.871094 L 199.890625 1156.699219 L 244.964844 1156.699219 L 243.410156 1175.671875 L 241.546875 1194.953125 L 264.550781 1192.773438 C 277.296875 1191.53125 288.175781 1189.664062 289.109375 1188.730469 C 290.042969 1188.109375 291.285156 1162.921875 291.59375 1133.066406 L 292.839844 1078.953125 L 248.695312 1078.953125 L 248.695312 1110.054688 L 201.132812 1110.054688 L 203.308594 1073.667969 C 204.242188 1053.765625 205.484375 1037.28125 206.105469 1036.972656 C 206.417969 1036.660156 234.085938 1038.214844 267.347656 1040.390625 C 300.609375 1042.570312 330.453125 1044.433594 333.5625 1044.433594 C 337.914062 1044.746094 338.847656 1047.546875 338.847656 1060.296875 L 338.847656 1075.84375 L 366.203125 1075.84375 L 367.449219 1137.109375 C 368.691406 1189.042969 369.933594 1201.792969 375.53125 1219.207031 C 391.386719 1267.101562 424.957031 1291.355469 482.160156 1295.710938 C 523.816406 1298.820312 560.1875 1288.558594 584.125 1266.789062 C 613.035156 1240.976562 621.117188 1213.921875 623.914062 1135.554688 L 625.78125 1082.0625 L 659.664062 1082.0625 C 692.929688 1082.0625 693.238281 1082.0625 693.238281 1074.601562 C 693.238281 1067.757812 694.484375 1067.136719 715.933594 1065.894531 C 728.054688 1064.960938 739.246094 1065.269531 740.800781 1066.515625 C 742.046875 1067.449219 742.667969 1106.320312 742.355469 1152.347656 L 741.425781 1236 L 708.160156 1236.933594 L 674.585938 1237.867188 L 674.585938 1284.203125 L 731.476562 1284.203125 C 762.875 1284.203125 809.816406 1285.136719 835.617188 1286.382812 L 882.871094 1288.246094 L 882.871094 1241.289062 L 855.824219 1239.113281 C 820.074219 1236.625 817.277344 1236.3125 816.964844 1234.445312 C 816.03125 1228.847656 821.628906 1115.027344 823.492188 1106.941406 C 825.359375 1096.679688 825.667969 1096.992188 904.628906 1184.6875 L 983.589844 1272.386719 L 1025.558594 1270.519531 C 1048.875 1269.277344 1074.363281 1267.722656 1082.757812 1266.789062 L 1097.371094 1264.921875 L 1097.371094 1186.554688 C 1097.371094 1143.328125 1098.300781 1090.773438 1099.546875 1070.246094 L 1101.410156 1032.308594 L 1131.566406 1032.308594 L 1131.566406 1055.628906 L 1164.207031 1054.699219 L 1196.847656 1053.453125 L 1196.847656 1215.789062 L 1137.78125 1215.789062 L 1137.78125 1255.28125 L 1205.550781 1257.148438 C 1242.546875 1258.390625 1286.6875 1259.324219 1303.476562 1259.324219 L 1333.628906 1259.324219 L 1333.628906 1218.898438 L 1312.800781 1218.898438 C 1300.988281 1218.898438 1286.378906 1217.964844 1280.160156 1217.03125 C 1268.347656 1214.855469 1268.347656 1214.855469 1268.347656 1200.238281 C 1268.347656 1183.132812 1269.589844 1181.890625 1301.609375 1163.542969 L 1323.992188 1150.792969 L 1364.40625 1193.398438 C 1386.476562 1216.71875 1404.199219 1236.3125 1403.574219 1236.933594 C 1402.953125 1237.554688 1392.386719 1239.113281 1380.261719 1240.042969 C 1368.136719 1241.289062 1358.5 1243.152344 1358.5 1244.398438 C 1358.5 1245.953125 1358.5 1254.660156 1358.5 1263.988281 L 1358.5 1281.09375 L 1529.476562 1281.09375 L 1529.476562 1266.167969 C 1529.476562 1239.113281 1528.234375 1237.554688 1506.472656 1237.554688 L 1487.511719 1237.554688 L 1430 1181.890625 C 1391.761719 1144.882812 1373.421875 1125.292969 1375.597656 1123.113281 C 1377.464844 1121.558594 1411.347656 1101.65625 1451.140625 1079.265625 L 1523.261719 1038.527344 L 1572.378906 1038.527344 L 1574.242188 1028.886719 C 1575.175781 1023.597656 1576.109375 1011.160156 1576.109375 1001.207031 L 1576.109375 983.480469 L 1485.335938 981.617188 C 1435.285156 980.683594 1394.25 980.371094 1393.9375 980.371094 C 1393.628906 980.683594 1394.25 990.324219 1395.183594 1001.832031 L 1396.425781 1022.976562 L 1415.390625 1022.976562 C 1427.203125 1022.976562 1433.109375 1024.222656 1431.242188 1025.777344 C 1429.6875 1027.640625 1393.9375 1047.546875 1351.660156 1070.558594 L 1274.566406 1112.539062 L 1274.566406 1061.226562 L 1286.378906 1059.050781 C 1292.59375 1058.117188 1308.761719 1057.1875 1322.128906 1057.1875 L 1346.066406 1057.1875 L 1346.066406 1045.058594 C 1346.066406 1038.527344 1346.996094 1028.574219 1347.929688 1023.289062 L 1350.105469 1013.648438 L 1274.253906 1013.648438 C 1232.597656 1013.648438 1190.941406 1014.582031 1182.238281 1015.515625 C 1167.625 1017.378906 1165.761719 1018.3125 1165.761719 1024.84375 C 1165.761719 1031.683594 1164.515625 1032.308594 1148.664062 1032.308594 C 1132.496094 1032.308594 1131.566406 1031.996094 1131.566406 1024.84375 C 1131.566406 1017.691406 1132.808594 1017.070312 1148.042969 1016.136719 L 1164.207031 1015.203125 L 1165.140625 1000.898438 L 1166.070312 986.59375 L 1100.167969 984.726562 C 1063.796875 983.480469 1016.855469 982.550781 995.714844 982.550781 L 957.476562 982.550781 L 957.476562 1029.195312 L 972.710938 1029.195312 C 980.792969 1029.195312 996.335938 1030.128906 1006.90625 1031.0625 L 1025.871094 1033.238281 L 1025.871094 1116.894531 C 1025.871094 1168.828125 1024.625 1200.238281 1022.761719 1199.617188 C 1021.207031 1198.996094 982.035156 1158.253906 935.71875 1108.496094 L 851.78125 1018.3125 L 778.105469 1019.246094 C 737.382812 1019.867188 701.632812 1020.800781 698.835938 1021.734375 C 694.171875 1022.976562 693.238281 1027.019531 693.238281 1044.746094 C 693.238281 1064.027344 692.617188 1065.894531 686.398438 1067.757812 C 682.359375 1068.691406 678.316406 1069.625 677.074219 1069.625 C 675.519531 1069.625 674.585938 1059.363281 674.585938 1046.613281 L 674.585938 1023.597656 L 655.3125 1021.734375 C 644.433594 1020.800781 605.886719 1019.246094 569.824219 1018.625 L 503.609375 1017.070312 L 503.609375 1082.0625 L 568.890625 1082.0625 L 568.890625 1130.890625 C 568.890625 1157.945312 567.335938 1185.621094 565.472656 1192.464844 C 557.078125 1223.5625 533.140625 1238.800781 495.835938 1236.933594 C 477.183594 1236 471.589844 1234.445312 461.953125 1227.292969 C 455.734375 1222.316406 447.652344 1212.679688 443.609375 1205.523438 C 437.082031 1193.085938 436.773438 1188.109375 435.839844 1115.339844 L 434.59375 1038.527344 L 493.351562 1038.527344 L 495.527344 1026.710938 C 496.457031 1020.488281 497.390625 1005.875 497.390625 994.054688 L 497.390625 973.21875 L 481.226562 973.84375 C 472.210938 973.84375 429.933594 975.398438 387.34375 976.640625 Z M 387.34375 976.640625 "/>
<path style=" stroke:none;fill-rule:nonzero;fill:rgb(0%,0%,0%);fill-opacity:1;" d="M 1717.554688 984.414062 C 1634.242188 997.476562 1568.957031 1036.039062 1541.601562 1088.285156 C 1535.386719 1100.414062 1534.140625 1106.632812 1534.140625 1133.375 C 1534.140625 1159.808594 1535.386719 1166.652344 1541.601562 1179.402344 C 1565.226562 1227.605469 1634.863281 1269.585938 1709.78125 1281.40625 C 1744.601562 1286.691406 1823.5625 1283.582031 1853.714844 1275.496094 C 1885.425781 1266.789062 1924.28125 1248.128906 1948.21875 1230.09375 C 2011.015625 1182.511719 2019.097656 1110.054688 1967.492188 1055.628906 C 1939.515625 1026.085938 1891.953125 1000.585938 1844.078125 990.011719 C 1823.5625 985.347656 1736.207031 981.617188 1717.554688 984.414062 Z M 1807.085938 1036.972656 C 1835.375 1041.949219 1870.503906 1057.808594 1889.15625 1073.980469 C 1905.628906 1088.285156 1918.066406 1113.164062 1918.066406 1131.199219 C 1918.066406 1155.144531 1911.847656 1169.449219 1893.195312 1188.109375 C 1843.765625 1237.867188 1749.886719 1249.375 1676.207031 1214.234375 C 1609.683594 1182.824219 1594.449219 1122.179688 1642.011719 1077.089844 C 1680.5625 1040.082031 1742.113281 1025.152344 1807.085938 1036.972656 Z M 1807.085938 1036.972656 "/>
<path style=" stroke:none;fill-rule:nonzero;fill:rgb(0%,0%,0%);fill-opacity:1;" d="M 0 1357.285156 L 0 1380.609375 L 32.640625 1380.609375 C 64.039062 1380.609375 65.28125 1380.921875 66.527344 1387.449219 C 67.148438 1391.492188 70.257812 1407.042969 73.054688 1422.59375 C 98.546875 1563.15625 199.578125 1684.128906 327.65625 1727.667969 C 378.949219 1745.082031 347.863281 1744.460938 997.890625 1744.460938 C 1647.917969 1744.460938 1616.832031 1745.082031 1668.125 1727.667969 C 1796.203125 1684.128906 1897.238281 1563.15625 1922.726562 1422.59375 C 1925.527344 1407.042969 1928.636719 1391.492188 1929.257812 1387.449219 C 1930.5 1380.921875 1931.742188 1380.609375 1963.140625 1380.609375 L 1995.78125 1380.609375 L 1995.78125 1333.960938 L 0 1333.960938 Z M 842.457031 1452.136719 L 842.457031 1477.015625 L 777.175781 1477.015625 L 777.175781 1532.992188 L 795.824219 1532.992188 C 819.761719 1532.992188 834.0625 1538.898438 839.035156 1550.71875 C 841.835938 1557.25 842.457031 1577.152344 841.835938 1617.890625 C 840.589844 1694.390625 844.632812 1689.726562 777.175781 1690.972656 L 727.433594 1691.90625 L 727.433594 1641.835938 L 792.71875 1641.835938 L 792.71875 1582.75 L 772.511719 1582.75 C 748.886719 1582.75 734.894531 1576.839844 730.542969 1565.332031 C 728.679688 1560.980469 727.433594 1533.300781 727.433594 1503.449219 C 727.433594 1450.269531 727.433594 1449.335938 735.207031 1440.007812 C 744.84375 1428.8125 748.261719 1428.191406 801.421875 1427.566406 L 842.457031 1427.257812 Z M 910.226562 1480.746094 L 910.847656 1532.992188 L 945.042969 1532.992188 L 945.664062 1480.746094 L 946.597656 1428.8125 L 970.84375 1427.878906 L 994.78125 1426.945312 L 994.78125 1691.59375 L 945.042969 1691.59375 L 945.042969 1582.75 L 910.847656 1582.75 L 910.847656 1691.59375 L 861.109375 1691.59375 L 861.109375 1426.945312 L 885.355469 1427.878906 L 909.292969 1428.8125 Z M 1126.902344 1430.367188 C 1150.839844 1435.964844 1150.21875 1432.234375 1150.21875 1560.046875 L 1150.21875 1673.554688 L 1140.890625 1682.574219 L 1131.566406 1691.90625 L 1081.824219 1690.972656 C 1011.570312 1689.726562 1018.410156 1703.101562 1017.164062 1562.847656 L 1016.234375 1449.648438 L 1024.316406 1440.316406 C 1028.667969 1435.03125 1036.128906 1430.054688 1040.792969 1429.433594 C 1057.578125 1426.945312 1114.777344 1427.566406 1126.902344 1430.367188 Z M 1279.226562 1430.367188 C 1301.609375 1435.34375 1302.542969 1438.761719 1302.542969 1505.3125 C 1302.542969 1562.535156 1302.542969 1563.777344 1295.082031 1572.488281 C 1287.933594 1580.570312 1286.066406 1581.195312 1257.777344 1582.128906 L 1227.933594 1583.371094 L 1227.933594 1532.992188 L 1255.914062 1532.992188 L 1255.914062 1477.015625 L 1218.609375 1477.015625 L 1218.609375 1691.59375 L 1168.871094 1691.59375 L 1168.871094 1427.257812 L 1217.988281 1427.257812 C 1244.722656 1427.257812 1272.390625 1428.8125 1279.226562 1430.367188 Z M 1279.226562 1430.367188 "/>
<path style=" stroke:none;fill-rule:nonzero;fill:rgb(0%,0%,0%);fill-opacity:1;" d="M 1069.390625 1476.703125 C 1067.835938 1480.125 1066.28125 1486.03125 1066.28125 1490.074219 C 1066.28125 1494.742188 1063.175781 1499.09375 1056.957031 1502.515625 C 1048.253906 1507.492188 1047.628906 1509.046875 1047.628906 1524.90625 C 1047.628906 1534.234375 1046.386719 1542.632812 1044.832031 1543.875 C 1041.101562 1546.054688 1045.765625 1563.15625 1052.292969 1570.308594 C 1054.78125 1573.109375 1056.957031 1579.328125 1056.957031 1584.304688 C 1056.957031 1589.28125 1059.132812 1595.808594 1061.929688 1598.921875 C 1065.972656 1603.273438 1066.28125 1605.449219 1063.484375 1608.871094 C 1059.753906 1613.535156 1061.929688 1629.398438 1066.28125 1629.398438 C 1067.527344 1629.398438 1069.703125 1634.371094 1070.636719 1640.59375 C 1072.5 1649.609375 1074.054688 1651.476562 1079.648438 1650.542969 C 1083.691406 1649.921875 1086.800781 1647.121094 1087.421875 1643.390625 C 1088.042969 1639.96875 1089.910156 1634.0625 1091.773438 1630.328125 C 1094.570312 1624.730469 1096.4375 1624.109375 1102.65625 1626.597656 C 1112.292969 1630.328125 1116.953125 1630.328125 1114.46875 1626.597656 C 1113.535156 1625.042969 1114.15625 1622.554688 1116.023438 1621.621094 C 1120.0625 1619.132812 1116.953125 1600.476562 1110.738281 1587.726562 C 1103.277344 1573.417969 1094.261719 1545.429688 1097.058594 1545.429688 C 1100.789062 1545.429688 1106.695312 1560.046875 1106.695312 1568.753906 C 1106.695312 1576.21875 1111.046875 1579.328125 1113.84375 1574.042969 C 1114.777344 1572.796875 1114.15625 1565.023438 1112.914062 1556.9375 C 1110.425781 1540.144531 1113.535156 1536.101562 1122.550781 1544.1875 C 1128.144531 1549.164062 1128.457031 1549.164062 1128.457031 1543.566406 C 1128.457031 1540.457031 1123.484375 1534.234375 1117.574219 1529.882812 C 1111.667969 1525.527344 1106.695312 1521.175781 1106.695312 1519.929688 C 1106.695312 1518.6875 1105.140625 1514.023438 1102.964844 1509.046875 C 1101.101562 1504.382812 1099.546875 1499.40625 1099.855469 1497.851562 C 1100.167969 1496.605469 1099.234375 1495.671875 1097.371094 1495.671875 C 1095.816406 1495.671875 1094.261719 1497.226562 1094.261719 1499.09375 C 1094.261719 1500.648438 1093.015625 1501.269531 1091.152344 1500.339844 C 1089.597656 1499.40625 1088.042969 1495.050781 1088.042969 1490.699219 C 1088.042969 1480.433594 1082.757812 1470.792969 1077.164062 1470.792969 C 1074.675781 1470.792969 1071.257812 1473.59375 1069.390625 1476.703125 Z M 1057.578125 1559.113281 C 1054.78125 1564.710938 1054.160156 1564.089844 1054.160156 1553.207031 C 1054.160156 1542.941406 1054.46875 1541.699219 1057.265625 1546.675781 C 1059.753906 1550.40625 1059.753906 1554.449219 1057.578125 1559.113281 Z M 1057.578125 1559.113281 "/>
</g>
</svg>
