<?xml version="1.0" encoding="UTF-8"?>
<svg xmlns="http://www.w3.org/2000/svg" xmlns:xlink="http://www.w3.org/1999/xlink" width="110pt" height="96pt" viewBox="0 0 110 96" version="1.1">
<g id="surface1">
<path style=" stroke:none;fill-rule:nonzero;fill:rgb(0%,0%,0%);fill-opacity:1;" d="M 52.984375 0.246094 C 51.464844 0.914062 50.609375 2.097656 50.816406 3.226562 C 50.953125 3.910156 52.164062 5.230469 52.832031 5.382812 C 53.222656 5.484375 53.121094 5.707031 50.148438 11.203125 C 48.441406 14.351562 46.988281 16.921875 46.921875 16.9375 C 46.851562 16.9375 45.726562 16.304688 44.445312 15.515625 C 43.164062 14.730469 41.300781 13.601562 40.3125 13 C 39.320312 12.402344 38.484375 11.886719 38.449219 11.855469 C 38.414062 11.835938 38.5 11.664062 38.636719 11.511719 C 39.472656 10.519531 39.421875 9.390625 38.484375 8.363281 C 36.773438 6.480469 33.066406 6.703125 31.789062 8.789062 C 30.660156 10.585938 32.523438 12.828125 35.117188 12.828125 C 35.628906 12.828125 36.039062 12.863281 36.039062 12.898438 C 36.039062 12.949219 36.433594 14.421875 36.894531 16.203125 C 37.371094 17.964844 37.832031 19.710938 37.9375 20.054688 L 38.105469 20.703125 L 54.742188 20.703125 C 63.898438 20.703125 71.398438 20.671875 71.398438 20.636719 C 71.398438 20.585938 71.671875 19.539062 72.011719 18.273438 C 72.355469 17.023438 72.765625 15.449219 72.933594 14.796875 C 73.429688 12.761719 73.34375 12.898438 74.402344 12.847656 C 74.917969 12.828125 75.667969 12.675781 76.0625 12.503906 C 76.863281 12.164062 77.820312 11.167969 77.992188 10.519531 C 78.417969 8.773438 76.539062 7.113281 74.128906 7.113281 C 71.191406 7.113281 69.28125 9.507812 70.730469 11.339844 L 71.074219 11.785156 L 70.152344 12.351562 C 64.632812 15.773438 62.53125 17.007812 62.429688 16.902344 C 62.414062 16.886719 60.996094 14.320312 59.304688 11.222656 L 56.246094 5.570312 L 56.894531 5.246094 C 58.449219 4.476562 59.066406 2.882812 58.28125 1.71875 C 57.765625 0.984375 57.511719 0.746094 56.621094 0.332031 C 55.785156 -0.078125 53.820312 -0.113281 52.984375 0.246094 Z M 52.984375 0.246094 "/>
<path style=" stroke:none;fill-rule:nonzero;fill:rgb(0%,0%,0%);fill-opacity:1;" d="M 20.429688 20.976562 C 12.007812 22.640625 5.347656 30.015625 3.84375 39.277344 C 3.671875 40.320312 3.585938 42.136719 3.585938 44.960938 L 3.585938 49.121094 L 0 49.121094 L 0 51.859375 L 109.660156 51.859375 L 109.660156 49.121094 L 106.070312 49.121094 L 106.070312 44.960938 C 106.070312 38.988281 105.59375 36.503906 103.695312 32.601562 C 100.675781 26.40625 95.34375 22.140625 89.109375 20.960938 C 88.015625 20.753906 86.171875 20.703125 79.613281 20.703125 L 71.449219 20.703125 L 70.988281 22.449219 C 70.730469 23.425781 70.441406 24.503906 70.355469 24.847656 L 70.183594 25.496094 L 39.304688 25.496094 L 39.0625 24.675781 C 38.925781 24.230469 38.652344 23.152344 38.433594 22.277344 L 38.023438 20.703125 L 29.824219 20.722656 C 23.621094 20.738281 21.316406 20.789062 20.429688 20.976562 Z M 35.101562 30.035156 C 36.417969 30.667969 37.714844 31.96875 38.363281 33.285156 C 38.824219 34.246094 38.859375 34.449219 38.859375 36.28125 C 38.859375 38.113281 38.824219 38.320312 38.363281 39.277344 C 37.714844 40.597656 36.417969 41.898438 35.101562 42.546875 C 34.144531 43.007812 33.9375 43.042969 32.113281 43.042969 C 30.285156 43.042969 30.078125 43.007812 29.121094 42.546875 C 27.808594 41.898438 26.507812 40.597656 25.859375 39.277344 C 25.398438 38.320312 25.363281 38.113281 25.363281 36.28125 C 25.363281 34.484375 25.398438 34.226562 25.824219 33.371094 C 26.441406 32.121094 27.296875 31.148438 28.355469 30.460938 C 29.652344 29.625 30.4375 29.433594 32.367188 29.484375 C 33.871094 29.519531 34.210938 29.589844 35.101562 30.035156 Z M 80.535156 30.035156 C 81.851562 30.667969 83.148438 31.96875 83.796875 33.285156 C 84.257812 34.246094 84.292969 34.449219 84.292969 36.28125 C 84.292969 38.113281 84.257812 38.320312 83.796875 39.277344 C 83.148438 40.597656 81.851562 41.898438 80.535156 42.546875 C 79.578125 43.007812 79.375 43.042969 77.546875 43.042969 C 75.71875 43.042969 75.515625 43.007812 74.558594 42.546875 C 73.242188 41.898438 71.945312 40.597656 71.296875 39.277344 C 70.832031 38.320312 70.800781 38.113281 70.800781 36.28125 C 70.800781 34.484375 70.832031 34.226562 71.261719 33.371094 C 71.875 32.121094 72.730469 31.148438 73.789062 30.460938 C 75.085938 29.625 75.871094 29.433594 77.804688 29.484375 C 79.304688 29.519531 79.648438 29.589844 80.535156 30.035156 Z M 80.535156 30.035156 "/>
<path style=" stroke:none;fill-rule:nonzero;fill:rgb(0%,0%,0%);fill-opacity:1;" d="M 21.28125 53.761719 C 17.609375 53.878906 16.996094 53.929688 16.859375 54.171875 C 16.722656 54.425781 16.003906 54.445312 8.695312 54.324219 L 0.683594 54.207031 L 0.683594 56.480469 L 2.546875 56.480469 C 3.570312 56.480469 4.628906 56.535156 4.902344 56.585938 L 5.414062 56.6875 L 5.535156 59.273438 C 5.585938 60.710938 5.6875 63.277344 5.738281 64.988281 L 5.859375 68.121094 L 2.21875 68.121094 L 2.21875 70.605469 L 8.316406 70.554688 C 11.683594 70.535156 14.535156 70.46875 14.65625 70.433594 C 14.808594 70.382812 14.859375 69.972656 14.824219 68.945312 L 14.773438 67.523438 L 12.777344 67.589844 L 10.761719 67.644531 L 10.761719 66.566406 C 10.761719 65.964844 10.8125 65.058594 10.863281 64.5625 L 10.984375 63.671875 L 13.460938 63.671875 L 13.375 64.714844 L 13.273438 65.777344 L 14.535156 65.65625 C 15.234375 65.589844 15.832031 65.484375 15.886719 65.433594 C 15.9375 65.402344 16.003906 64.015625 16.023438 62.371094 L 16.089844 59.390625 L 13.664062 59.390625 L 13.664062 61.105469 L 11.050781 61.105469 L 11.171875 59.101562 C 11.222656 58.003906 11.289062 57.097656 11.324219 57.082031 C 11.339844 57.0625 12.863281 57.148438 14.6875 57.269531 C 16.515625 57.390625 18.15625 57.492188 18.328125 57.492188 C 18.566406 57.507812 18.617188 57.664062 18.617188 58.363281 L 18.617188 59.222656 L 20.121094 59.222656 L 20.1875 62.59375 C 20.257812 65.453125 20.324219 66.152344 20.632812 67.113281 C 21.503906 69.75 23.347656 71.082031 26.492188 71.324219 C 28.78125 71.496094 30.78125 70.929688 32.09375 69.730469 C 33.683594 68.3125 34.128906 66.820312 34.28125 62.507812 L 34.382812 59.5625 L 36.246094 59.5625 C 38.074219 59.5625 38.089844 59.5625 38.089844 59.152344 C 38.089844 58.777344 38.160156 58.742188 39.335938 58.671875 C 40.003906 58.621094 40.617188 58.640625 40.703125 58.707031 C 40.773438 58.757812 40.804688 60.898438 40.789062 63.433594 L 40.738281 68.035156 L 38.910156 68.089844 L 37.066406 68.140625 L 37.066406 70.691406 L 40.191406 70.691406 C 41.917969 70.691406 44.496094 70.742188 45.914062 70.808594 L 48.507812 70.914062 L 48.507812 68.328125 L 47.023438 68.207031 C 45.058594 68.070312 44.90625 68.054688 44.886719 67.953125 C 44.835938 67.644531 45.144531 61.378906 45.246094 60.933594 C 45.347656 60.367188 45.367188 60.386719 49.703125 65.210938 L 54.042969 70.039062 L 56.347656 69.9375 C 57.628906 69.867188 59.03125 69.78125 59.492188 69.730469 L 60.296875 69.628906 L 60.296875 65.316406 C 60.296875 62.933594 60.347656 60.042969 60.414062 58.914062 L 60.515625 56.824219 L 62.175781 56.824219 L 62.175781 58.109375 L 63.96875 58.058594 L 65.761719 57.988281 L 65.761719 66.925781 L 62.515625 66.925781 L 62.515625 69.097656 L 66.238281 69.199219 C 68.273438 69.269531 70.695312 69.320312 71.621094 69.320312 L 73.277344 69.320312 L 73.277344 67.09375 L 72.132812 67.09375 C 71.484375 67.09375 70.679688 67.042969 70.339844 66.992188 C 69.6875 66.871094 69.6875 66.871094 69.6875 66.066406 C 69.6875 65.125 69.757812 65.058594 71.515625 64.046875 L 72.746094 63.347656 L 74.96875 65.691406 C 76.179688 66.976562 77.152344 68.054688 77.121094 68.089844 C 77.085938 68.121094 76.503906 68.207031 75.839844 68.257812 C 75.171875 68.328125 74.644531 68.429688 74.644531 68.5 C 74.644531 68.585938 74.644531 69.0625 74.644531 69.578125 L 74.644531 70.519531 L 84.039062 70.519531 L 84.039062 69.699219 C 84.039062 68.207031 83.96875 68.121094 82.773438 68.121094 L 81.730469 68.121094 L 78.570312 65.058594 C 76.46875 63.019531 75.460938 61.941406 75.582031 61.824219 C 75.683594 61.738281 77.546875 60.640625 79.734375 59.410156 L 83.695312 57.167969 L 86.394531 57.167969 L 86.496094 56.636719 C 86.546875 56.34375 86.597656 55.660156 86.597656 55.113281 L 86.597656 54.136719 L 81.613281 54.035156 C 78.863281 53.984375 76.605469 53.964844 76.589844 53.964844 C 76.574219 53.984375 76.605469 54.511719 76.660156 55.148438 L 76.726562 56.3125 L 77.769531 56.3125 C 78.417969 56.3125 78.742188 56.378906 78.640625 56.464844 C 78.554688 56.566406 76.589844 57.664062 74.265625 58.929688 L 70.03125 61.242188 L 70.03125 58.417969 L 70.679688 58.296875 C 71.023438 58.246094 71.910156 58.195312 72.644531 58.195312 L 73.960938 58.195312 L 73.960938 57.527344 C 73.960938 57.167969 74.011719 56.617188 74.0625 56.328125 L 74.183594 55.796875 L 70.015625 55.796875 C 67.726562 55.796875 65.4375 55.847656 64.957031 55.898438 C 64.15625 56.003906 64.054688 56.054688 64.054688 56.414062 C 64.054688 56.789062 63.984375 56.824219 63.113281 56.824219 C 62.226562 56.824219 62.175781 56.808594 62.175781 56.414062 C 62.175781 56.019531 62.242188 55.984375 63.078125 55.933594 L 63.96875 55.882812 L 64.019531 55.09375 L 64.070312 54.308594 L 60.449219 54.207031 C 58.449219 54.136719 55.871094 54.085938 54.710938 54.085938 L 52.609375 54.085938 L 52.609375 56.652344 L 53.445312 56.652344 C 53.890625 56.652344 54.742188 56.703125 55.324219 56.753906 L 56.367188 56.875 L 56.367188 61.480469 C 56.367188 64.339844 56.296875 66.066406 56.195312 66.035156 C 56.109375 66 53.957031 63.757812 51.414062 61.019531 L 46.800781 56.054688 L 42.753906 56.105469 C 40.515625 56.140625 38.550781 56.191406 38.398438 56.242188 C 38.140625 56.3125 38.089844 56.535156 38.089844 57.507812 C 38.089844 58.570312 38.054688 58.671875 37.714844 58.777344 C 37.492188 58.828125 37.269531 58.878906 37.203125 58.878906 C 37.117188 58.878906 37.066406 58.3125 37.066406 57.613281 L 37.066406 56.34375 L 36.007812 56.242188 C 35.410156 56.191406 33.289062 56.105469 31.308594 56.070312 L 27.671875 55.984375 L 27.671875 59.5625 L 31.257812 59.5625 L 31.257812 62.25 C 31.257812 63.738281 31.171875 65.261719 31.070312 65.640625 C 30.609375 67.351562 29.292969 68.191406 27.242188 68.089844 C 26.21875 68.035156 25.910156 67.953125 25.382812 67.558594 C 25.039062 67.285156 24.597656 66.753906 24.375 66.359375 C 24.015625 65.675781 24 65.402344 23.945312 61.394531 L 23.878906 57.167969 L 27.105469 57.167969 L 27.226562 56.515625 C 27.277344 56.171875 27.328125 55.371094 27.328125 54.71875 L 27.328125 53.570312 L 26.441406 53.605469 C 25.945312 53.605469 23.621094 53.691406 21.28125 53.761719 Z M 21.28125 53.761719 "/>
<path style=" stroke:none;fill-rule:nonzero;fill:rgb(0%,0%,0%);fill-opacity:1;" d="M 94.371094 54.1875 C 89.792969 54.90625 86.207031 57.03125 84.703125 59.90625 C 84.363281 60.574219 84.292969 60.914062 84.292969 62.386719 C 84.292969 63.84375 84.363281 64.21875 84.703125 64.921875 C 86 67.574219 89.828125 69.886719 93.945312 70.535156 C 95.855469 70.828125 100.195312 70.65625 101.851562 70.210938 C 103.59375 69.730469 105.730469 68.703125 107.046875 67.710938 C 110.496094 65.09375 110.9375 61.105469 108.105469 58.109375 C 106.566406 56.480469 103.953125 55.078125 101.324219 54.496094 C 100.195312 54.238281 95.394531 54.035156 94.371094 54.1875 Z M 99.289062 57.082031 C 100.84375 57.355469 102.773438 58.226562 103.800781 59.117188 C 104.703125 59.90625 105.386719 61.273438 105.386719 62.269531 C 105.386719 63.585938 105.046875 64.375 104.023438 65.402344 C 101.304688 68.140625 96.148438 68.773438 92.097656 66.839844 C 88.445312 65.109375 87.605469 61.769531 90.21875 59.289062 C 92.339844 57.253906 95.71875 56.429688 99.289062 57.082031 Z M 99.289062 57.082031 "/>
<path style=" stroke:none;fill-rule:nonzero;fill:rgb(0%,0%,0%);fill-opacity:1;" d="M 0 74.714844 L 0 75.996094 L 1.792969 75.996094 C 3.519531 75.996094 3.585938 76.015625 3.65625 76.375 C 3.6875 76.597656 3.859375 77.453125 4.015625 78.308594 C 5.414062 86.046875 10.964844 92.703125 18.003906 95.101562 C 20.820312 96.058594 19.113281 96.023438 54.828125 96.023438 C 90.546875 96.023438 88.835938 96.058594 91.65625 95.101562 C 98.691406 92.703125 104.242188 86.046875 105.644531 78.308594 C 105.796875 77.453125 105.96875 76.597656 106.003906 76.375 C 106.070312 76.015625 106.140625 75.996094 107.863281 75.996094 L 109.660156 75.996094 L 109.660156 73.429688 L 0 73.429688 Z M 46.289062 79.933594 L 46.289062 81.304688 L 42.703125 81.304688 L 42.703125 84.386719 L 43.726562 84.386719 C 45.042969 84.386719 45.828125 84.710938 46.101562 85.359375 C 46.253906 85.71875 46.289062 86.816406 46.253906 89.058594 C 46.1875 93.269531 46.410156 93.011719 42.703125 93.082031 L 39.96875 93.132812 L 39.96875 90.375 L 43.554688 90.375 L 43.554688 87.125 L 42.445312 87.125 C 41.148438 87.125 40.378906 86.796875 40.140625 86.164062 C 40.039062 85.925781 39.96875 84.402344 39.96875 82.757812 C 39.96875 79.832031 39.96875 79.78125 40.394531 79.265625 C 40.925781 78.648438 41.113281 78.617188 44.035156 78.582031 L 46.289062 78.566406 Z M 50.011719 81.507812 L 50.046875 84.386719 L 51.925781 84.386719 L 51.960938 81.507812 L 52.011719 78.648438 L 53.34375 78.597656 L 54.660156 78.546875 L 54.660156 93.117188 L 51.925781 93.117188 L 51.925781 87.125 L 50.046875 87.125 L 50.046875 93.117188 L 47.3125 93.117188 L 47.3125 78.546875 L 48.644531 78.597656 L 49.960938 78.648438 Z M 61.917969 78.734375 C 63.234375 79.042969 63.199219 78.839844 63.199219 85.875 L 63.199219 92.121094 L 62.6875 92.617188 L 62.175781 93.132812 L 59.441406 93.082031 C 55.582031 93.011719 55.957031 93.75 55.886719 86.027344 L 55.835938 79.796875 L 56.28125 79.285156 C 56.519531 78.992188 56.929688 78.71875 57.1875 78.683594 C 58.109375 78.546875 61.25 78.582031 61.917969 78.734375 Z M 70.289062 78.734375 C 71.515625 79.007812 71.566406 79.199219 71.566406 82.859375 C 71.566406 86.011719 71.566406 86.078125 71.160156 86.558594 C 70.765625 87.003906 70.664062 87.039062 69.109375 87.089844 L 67.46875 87.15625 L 67.46875 84.386719 L 69.007812 84.386719 L 69.007812 81.304688 L 66.957031 81.304688 L 66.957031 93.117188 L 64.222656 93.117188 L 64.222656 78.566406 L 66.921875 78.566406 C 68.390625 78.566406 69.910156 78.648438 70.289062 78.734375 Z M 70.289062 78.734375 "/>
<path style=" stroke:none;fill-rule:nonzero;fill:rgb(0%,0%,0%);fill-opacity:1;" d="M 58.757812 81.285156 C 58.671875 81.476562 58.585938 81.800781 58.585938 82.023438 C 58.585938 82.277344 58.417969 82.519531 58.074219 82.707031 C 57.597656 82.980469 57.5625 83.066406 57.5625 83.941406 C 57.5625 84.453125 57.492188 84.914062 57.410156 84.984375 C 57.203125 85.105469 57.460938 86.046875 57.816406 86.4375 C 57.953125 86.59375 58.074219 86.933594 58.074219 87.210938 C 58.074219 87.484375 58.195312 87.84375 58.347656 88.015625 C 58.570312 88.253906 58.585938 88.375 58.433594 88.5625 C 58.226562 88.820312 58.347656 89.691406 58.585938 89.691406 C 58.65625 89.691406 58.773438 89.964844 58.824219 90.308594 C 58.929688 90.804688 59.015625 90.90625 59.320312 90.855469 C 59.542969 90.820312 59.714844 90.667969 59.75 90.460938 C 59.78125 90.273438 59.886719 89.949219 59.988281 89.742188 C 60.140625 89.433594 60.242188 89.402344 60.585938 89.539062 C 61.113281 89.742188 61.371094 89.742188 61.234375 89.539062 C 61.183594 89.453125 61.21875 89.316406 61.320312 89.261719 C 61.542969 89.125 61.371094 88.097656 61.03125 87.398438 C 60.621094 86.609375 60.125 85.070312 60.277344 85.070312 C 60.484375 85.070312 60.808594 85.875 60.808594 86.351562 C 60.808594 86.765625 61.046875 86.933594 61.199219 86.644531 C 61.25 86.574219 61.21875 86.148438 61.148438 85.703125 C 61.011719 84.777344 61.183594 84.554688 61.679688 85 C 61.984375 85.273438 62.003906 85.273438 62.003906 84.96875 C 62.003906 84.796875 61.730469 84.453125 61.40625 84.214844 C 61.082031 83.972656 60.808594 83.734375 60.808594 83.664062 C 60.808594 83.597656 60.722656 83.339844 60.601562 83.066406 C 60.5 82.808594 60.414062 82.535156 60.433594 82.449219 C 60.449219 82.382812 60.398438 82.332031 60.296875 82.332031 C 60.210938 82.332031 60.125 82.417969 60.125 82.519531 C 60.125 82.605469 60.054688 82.640625 59.953125 82.585938 C 59.867188 82.535156 59.78125 82.296875 59.78125 82.058594 C 59.78125 81.492188 59.492188 80.960938 59.183594 80.960938 C 59.046875 80.960938 58.859375 81.117188 58.757812 81.285156 Z M 58.109375 85.824219 C 57.953125 86.132812 57.921875 86.097656 57.921875 85.496094 C 57.921875 84.933594 57.9375 84.863281 58.089844 85.136719 C 58.226562 85.34375 58.226562 85.566406 58.109375 85.824219 Z M 58.109375 85.824219 "/>
</g>
</svg>
