<?xml version="1.0" standalone="no"?>
<!DOCTYPE svg PUBLIC "-//W3C//DTD SVG 20010904//EN"
 "http://www.w3.org/TR/2001/REC-SVG-20010904/DTD/svg10.dtd">
<svg version="1.0" xmlns="http://www.w3.org/2000/svg"
 width="643.786441pt" height="560.949867pt" viewBox="0 0 643.786441 560.949867"
 preserveAspectRatio="xMidYMid meet">
<metadata>
Created by potrace 1.12, written by Peter Selinger 2001-2015
</metadata>
<g transform="translate(-27.000000,581.948214) scale(0.100000,-0.100000)"
fill="#000000" stroke="none">
<path d="M3372 5805 c-89 -39 -139 -108 -127 -174 8 -40 79 -117 118 -126 23
-6 17 -19 -157 -340 -100 -184 -185 -334 -189 -335 -4 0 -70 37 -145 83 -75
46 -184 112 -242 147 -58 35 -107 65 -109 67 -2 1 3 11 11 20 49 58 46 124 -9
184 -100 110 -317 97 -392 -25 -66 -105 43 -236 195 -236 30 0 54 -2 54 -4 0
-3 23 -89 50 -193 28 -103 55 -205 61 -225 l10 -38 974 0 c536 0 975 2 975 4
0 3 16 64 36 138 20 73 44 165 54 203 29 119 24 111 86 114 30 1 74 10 97 20
47 20 103 78 113 116 25 102 -85 199 -226 199 -172 0 -284 -140 -199 -247 l20
-26 -54 -33 c-323 -200 -446 -272 -452 -266 -1 1 -84 151 -183 332 l-179 330
38 19 c91 45 127 138 81 206 -30 43 -45 57 -97 81 -49 24 -164 26 -213 5z"/>
<path d="M1466 4594 c-493 -97 -883 -528 -971 -1069 -10 -61 -15 -167 -15
-332 l0 -243 -105 0 -105 0 0 -80 0 -80 3210 0 3210 0 0 80 0 80 -105 0 -105
0 0 243 c0 349 -28 494 -139 722 -177 362 -489 611 -854 680 -64 12 -172 15
-556 15 l-478 0 -27 -102 c-15 -57 -32 -120 -37 -140 l-10 -38 -904 0 -904 0
-14 48 c-8 26 -24 89 -37 140 l-24 92 -480 -1 c-363 -1 -498 -4 -550 -15z
m859 -529 c77 -37 153 -113 191 -190 27 -56 29 -68 29 -175 0 -107 -2 -119
-29 -175 -38 -77 -114 -153 -191 -191 -56 -27 -68 -29 -175 -29 -107 0 -119 2
-175 29 -77 38 -153 114 -191 191 -27 56 -29 68 -29 175 0 105 2 120 27 170
36 73 86 130 148 170 76 49 122 60 235 57 88 -2 108 -6 160 -32z m2660 0 c77
-37 153 -113 191 -190 27 -56 29 -68 29 -175 0 -107 -2 -119 -29 -175 -38 -77
-114 -153 -191 -191 -56 -27 -68 -29 -175 -29 -107 0 -119 2 -175 29 -77 38
-153 114 -191 191 -27 56 -29 68 -29 175 0 105 2 120 27 170 36 73 86 130 148
170 76 49 122 60 235 57 88 -2 108 -6 160 -32z"/>
<path d="M1516 2679 c-215 -7 -251 -10 -259 -24 -8 -15 -50 -16 -478 -9 l-469
7 0 -66 0 -67 109 0 c60 0 122 -3 138 -6 l30 -6 7 -151 c3 -84 9 -234 12 -334
l7 -183 -107 0 -106 0 0 -72 0 -73 357 3 c197 1 364 5 371 7 9 3 12 27 10 87
l-3 83 -117 -4 -118 -3 0 63 c0 35 3 88 6 117 l7 52 72 0 73 0 -5 -61 -6 -62
74 7 c41 4 76 10 79 13 3 2 7 83 8 179 l4 174 -71 0 -71 0 0 -50 0 -50 -77 0
-76 0 7 117 c3 64 7 117 9 118 1 1 90 -4 197 -11 107 -7 203 -13 213 -13 14
-1 17 -10 17 -51 l0 -50 44 0 44 0 4 -197 c4 -167 8 -208 26 -264 51 -154 159
-232 343 -246 134 -10 251 23 328 93 93 83 119 170 128 422 l6 172 109 0 c107
0 108 0 108 24 0 22 4 24 73 28 39 3 75 2 80 -2 4 -3 6 -128 5 -276 l-3 -269
-107 -3 -108 -3 0 -74 0 -75 183 0 c101 0 252 -3 335 -7 l152 -6 0 76 0 75
-87 7 c-115 8 -124 9 -125 15 -3 18 15 384 21 410 6 33 7 32 261 -250 l254
-282 135 6 c75 4 157 9 184 12 l47 6 0 252 c0 139 3 308 7 374 l6 122 49 0 48
0 0 -37 0 -38 105 3 105 4 0 -261 0 -261 -95 0 -95 0 0 -63 0 -64 218 -6 c119
-4 261 -7 315 -7 l97 0 0 65 0 65 -67 0 c-38 0 -85 3 -105 6 -38 7 -38 7 -38
54 0 55 4 59 107 118 l72 41 130 -137 c71 -75 128 -138 126 -140 -2 -2 -36 -7
-75 -10 -39 -4 -70 -10 -70 -14 0 -5 0 -33 0 -63 l0 -55 275 0 275 0 0 48 c0
87 -4 92 -74 92 l-61 0 -185 179 c-123 119 -182 182 -175 189 6 5 115 69 243
141 l232 131 79 0 79 0 6 31 c3 17 6 57 6 89 l0 57 -292 6 c-161 3 -293 4
-294 4 -1 -1 1 -32 4 -69 l4 -68 61 0 c38 0 57 -4 51 -9 -5 -6 -120 -70 -256
-144 l-248 -135 0 83 0 82 38 7 c20 3 72 6 115 6 l77 0 0 39 c0 21 3 53 6 70
l7 31 -244 0 c-134 0 -268 -3 -296 -6 -47 -6 -53 -9 -53 -30 0 -22 -4 -24 -55
-24 -52 0 -55 1 -55 24 0 23 4 25 53 28 l52 3 3 46 3 46 -212 6 c-117 4 -268
7 -336 7 l-123 0 0 -75 0 -75 49 0 c26 0 76 -3 110 -6 l61 -7 0 -269 c0 -167
-4 -268 -10 -266 -5 2 -131 133 -280 293 l-270 290 -237 -3 c-131 -2 -246 -5
-255 -8 -15 -4 -18 -17 -18 -74 0 -62 -2 -68 -22 -74 -13 -3 -26 -6 -30 -6 -5
0 -8 33 -8 74 l0 74 -62 6 c-35 3 -159 8 -275 10 l-213 5 0 -104 0 -105 105 0
105 0 0 -157 c0 -87 -5 -176 -11 -198 -27 -100 -104 -149 -224 -143 -60 3 -78
8 -109 31 -20 16 -46 47 -59 70 -21 40 -22 56 -25 290 l-4 247 95 0 94 0 7 38
c3 20 6 67 6 105 l0 67 -52 -2 c-29 0 -165 -5 -302 -9z"/>
<path d="M5795 2654 c-268 -42 -478 -166 -566 -334 -20 -39 -24 -59 -24 -145
0 -85 4 -107 24 -148 76 -155 300 -290 541 -328 112 -17 366 -7 463 19 102 28
227 88 304 146 202 153 228 386 62 561 -90 95 -243 177 -397 211 -66 15 -347
27 -407 18z m288 -169 c91 -16 204 -67 264 -119 53 -46 93 -126 93 -184 0 -77
-20 -123 -80 -183 -159 -160 -461 -197 -698 -84 -214 101 -263 296 -110 441
124 119 322 167 531 129z"/>
<path d="M270 1455 l0 -75 105 0 c101 0 105 -1 109 -22 2 -13 12 -63 21 -113
82 -452 407 -841 819 -981 165 -56 65 -54 2156 -54 2091 0 1991 -2 2156 54
412 140 737 529 819 981 9 50 19 100 21 113 4 21 8 22 109 22 l105 0 0 75 0
75 -3210 0 -3210 0 0 -75z m2710 -305 l0 -80 -105 0 -105 0 0 -90 0 -90 60 0
c77 0 123 -19 139 -57 9 -21 11 -85 9 -216 -4 -246 9 -231 -208 -235 l-160 -3
0 80 0 81 105 0 105 0 0 95 0 95 -65 0 c-76 0 -121 19 -135 56 -6 14 -10 103
-10 199 0 171 0 174 25 204 31 36 42 38 213 40 l132 1 0 -80z m218 -92 l2
-168 55 0 55 0 2 168 3 167 78 3 77 3 0 -426 0 -425 -80 0 -80 0 0 175 0 175
-55 0 -55 0 0 -175 0 -175 -80 0 -80 0 0 425 0 426 78 -3 77 -3 3 -167z m697
162 c77 -18 75 -6 75 -417 l0 -365 -30 -29 -30 -30 -160 3 c-226 4 -204 -39
-208 412 l-3 364 26 30 c14 17 38 33 53 35 54 8 238 6 277 -3z m490 0 c72 -16
75 -27 75 -241 0 -184 0 -188 -24 -216 -23 -26 -29 -28 -120 -31 l-96 -4 0 81
0 81 45 0 45 0 0 90 0 90 -60 0 -60 0 0 -345 0 -345 -80 0 -80 0 0 425 0 425
158 0 c86 0 175 -5 197 -10z"/>
<path d="M3710 1071 c-5 -11 -10 -30 -10 -43 0 -15 -10 -29 -30 -40 -28 -16
-30 -21 -30 -72 0 -30 -4 -57 -9 -61 -12 -7 3 -62 24 -85 8 -9 15 -29 15 -45
0 -16 7 -37 16 -47 13 -14 14 -21 5 -32 -12 -15 -5 -66 9 -66 4 0 11 -16 14
-36 6 -29 11 -35 29 -32 13 2 23 11 25 23 2 11 8 30 14 42 9 18 15 20 35 12
31 -12 46 -12 38 0 -3 5 -1 13 5 16 13 8 3 68 -17 109 -24 46 -53 136 -44 136
12 0 31 -47 31 -75 0 -24 14 -34 23 -17 3 4 1 29 -3 55 -8 54 2 67 31 41 18
-16 19 -16 19 2 0 10 -16 30 -35 44 -19 14 -35 28 -35 32 0 4 -5 19 -12 35 -6
15 -11 31 -10 36 1 4 -2 7 -8 7 -5 0 -10 -5 -10 -11 0 -5 -4 -7 -10 -4 -5 3
-10 17 -10 31 0 33 -17 64 -35 64 -8 0 -19 -9 -25 -19z m-38 -265 c-9 -18 -11
-16 -11 19 0 33 1 37 10 21 8 -12 8 -25 1 -40z"/>
</g>
</svg>
